<svg id="visual" viewBox="0 0 900 600" width="900" height="600" xmlns="http://www.w3.org/2000/svg" xmlns:xlink="http://www.w3.org/1999/xlink" version="1.1"><rect x="0" y="0" width="900" height="600" fill="#000509"></rect><path d="M0 430L21.5 431.2C43 432.3 86 434.7 128.8 422.2C171.7 409.7 214.3 382.3 257.2 380.2C300 378 343 401 385.8 413.3C428.7 425.7 471.3 427.3 514.2 428.8C557 430.3 600 431.7 642.8 427.7C685.7 423.7 728.3 414.3 771.2 406.7C814 399 857 393 878.5 390L900 387L900 601L878.5 601C857 601 814 601 771.2 601C728.3 601 685.7 601 642.8 601C600 601 557 601 514.2 601C471.3 601 428.7 601 385.8 601C343 601 300 601 257.2 601C214.3 601 171.7 601 128.8 601C86 601 43 601 21.5 601L0 601Z" fill="#237a5f"></path><path d="M0 450L21.5 449.3C43 448.7 86 447.3 128.8 445.5C171.7 443.7 214.3 441.3 257.2 440.7C300 440 343 441 385.8 436.3C428.7 431.7 471.3 421.3 514.2 423.2C557 425 600 439 642.8 445C685.7 451 728.3 449 771.2 452.5C814 456 857 465 878.5 469.5L900 474L900 601L878.5 601C857 601 814 601 771.2 601C728.3 601 685.7 601 642.8 601C600 601 557 601 514.2 601C471.3 601 428.7 601 385.8 601C343 601 300 601 257.2 601C214.3 601 171.7 601 128.8 601C86 601 43 601 21.5 601L0 601Z" fill="#228d5d"></path><path d="M0 437L21.5 443.5C43 450 86 463 128.8 468.8C171.7 474.7 214.3 473.3 257.2 479C300 484.7 343 497.3 385.8 503.2C428.7 509 471.3 508 514.2 496.5C557 485 600 463 642.8 458.3C685.7 453.7 728.3 466.3 771.2 477.2C814 488 857 497 878.5 501.5L900 506L900 601L878.5 601C857 601 814 601 771.2 601C728.3 601 685.7 601 642.8 601C600 601 557 601 514.2 601C471.3 601 428.7 601 385.8 601C343 601 300 601 257.2 601C214.3 601 171.7 601 128.8 601C86 601 43 601 21.5 601L0 601Z" fill="#329f54"></path><path d="M0 513L21.5 517.3C43 521.7 86 530.3 128.8 533.7C171.7 537 214.3 535 257.2 532.7C300 530.3 343 527.7 385.8 519.8C428.7 512 471.3 499 514.2 496.3C557 493.7 600 501.3 642.8 500.7C685.7 500 728.3 491 771.2 488C814 485 857 488 878.5 489.5L900 491L900 601L878.5 601C857 601 814 601 771.2 601C728.3 601 685.7 601 642.8 601C600 601 557 601 514.2 601C471.3 601 428.7 601 385.8 601C343 601 300 601 257.2 601C214.3 601 171.7 601 128.8 601C86 601 43 601 21.5 601L0 601Z" fill="#4db045"></path><path d="M0 566L21.5 560.8C43 555.7 86 545.3 128.8 543.7C171.7 542 214.3 549 257.2 548.8C300 548.7 343 541.3 385.8 537.3C428.7 533.3 471.3 532.7 514.2 533.5C557 534.3 600 536.7 642.8 542.3C685.7 548 728.3 557 771.2 558.7C814 560.3 857 554.7 878.5 551.8L900 549L900 601L878.5 601C857 601 814 601 771.2 601C728.3 601 685.7 601 642.8 601C600 601 557 601 514.2 601C471.3 601 428.7 601 385.8 601C343 601 300 601 257.2 601C214.3 601 171.7 601 128.8 601C86 601 43 601 21.5 601L0 601Z" fill="#6ec02b"></path></svg>