<svg id="visual" viewBox="0 0 900 600" width="900" height="600" xmlns="http://www.w3.org/2000/svg" xmlns:xlink="http://www.w3.org/1999/xlink" version="1.1"><rect x="0" y="0" width="900" height="600" fill="#001220"></rect><path d="M0 443L21.5 428.7C43 414.3 86 385.7 128.8 383.7C171.7 381.7 214.3 406.3 257.2 416.2C300 426 343 421 385.8 409.8C428.7 398.7 471.3 381.3 514.2 379.3C557 377.3 600 390.7 642.8 398.7C685.7 406.7 728.3 409.3 771.2 409.5C814 409.7 857 407.3 878.5 406.2L900 405L900 601L878.5 601C857 601 814 601 771.2 601C728.3 601 685.7 601 642.8 601C600 601 557 601 514.2 601C471.3 601 428.7 601 385.8 601C343 601 300 601 257.2 601C214.3 601 171.7 601 128.8 601C86 601 43 601 21.5 601L0 601Z" fill="#fa7268"></path><path d="M0 406L21.5 415.3C43 424.7 86 443.3 128.8 454C171.7 464.7 214.3 467.3 257.2 456.8C300 446.3 343 422.7 385.8 420C428.7 417.3 471.3 435.7 514.2 435.3C557 435 600 416 642.8 407.5C685.7 399 728.3 401 771.2 404.7C814 408.3 857 413.7 878.5 416.3L900 419L900 601L878.5 601C857 601 814 601 771.2 601C728.3 601 685.7 601 642.8 601C600 601 557 601 514.2 601C471.3 601 428.7 601 385.8 601C343 601 300 601 257.2 601C214.3 601 171.7 601 128.8 601C86 601 43 601 21.5 601L0 601Z" fill="#ef5f67"></path><path d="M0 446L21.5 456.2C43 466.3 86 486.7 128.8 485.5C171.7 484.3 214.3 461.7 257.2 458.5C300 455.3 343 471.7 385.8 481C428.7 490.3 471.3 492.7 514.2 492.2C557 491.7 600 488.3 642.8 489C685.7 489.7 728.3 494.3 771.2 495.5C814 496.7 857 494.3 878.5 493.2L900 492L900 601L878.5 601C857 601 814 601 771.2 601C728.3 601 685.7 601 642.8 601C600 601 557 601 514.2 601C471.3 601 428.7 601 385.8 601C343 601 300 601 257.2 601C214.3 601 171.7 601 128.8 601C86 601 43 601 21.5 601L0 601Z" fill="#e34c67"></path><path d="M0 517L21.5 519.5C43 522 86 527 128.8 527.7C171.7 528.3 214.3 524.7 257.2 526.3C300 528 343 535 385.8 537.3C428.7 539.7 471.3 537.3 514.2 533.5C557 529.7 600 524.3 642.8 522.2C685.7 520 728.3 521 771.2 516.8C814 512.7 857 503.3 878.5 498.7L900 494L900 601L878.5 601C857 601 814 601 771.2 601C728.3 601 685.7 601 642.8 601C600 601 557 601 514.2 601C471.3 601 428.7 601 385.8 601C343 601 300 601 257.2 601C214.3 601 171.7 601 128.8 601C86 601 43 601 21.5 601L0 601Z" fill="#d53867"></path><path d="M0 554L21.5 555.8C43 557.7 86 561.3 128.8 559.5C171.7 557.7 214.3 550.3 257.2 551.7C300 553 343 563 385.8 565.8C428.7 568.7 471.3 564.3 514.2 562.3C557 560.3 600 560.7 642.8 559C685.7 557.3 728.3 553.7 771.2 547.5C814 541.3 857 532.7 878.5 528.3L900 524L900 601L878.5 601C857 601 814 601 771.2 601C728.3 601 685.7 601 642.8 601C600 601 557 601 514.2 601C471.3 601 428.7 601 385.8 601C343 601 300 601 257.2 601C214.3 601 171.7 601 128.8 601C86 601 43 601 21.5 601L0 601Z" fill="#c62368"></path></svg>