<?xml version="1.0" encoding="UTF-8"?>
<svg id="Layer_1" data-name="Layer 1" xmlns="http://www.w3.org/2000/svg" viewBox="0 0 286.8 65.76">
  <defs>
    <style>
      .cls-1 {
        fill: #fff;
      }

      .cls-2 {
        fill: #343535;
      }

      .cls-3 {
        fill: #fafafa;
      }

      .cls-4 {
        fill: #1e1f1f;
      }

      .cls-5 {
        fill: #040504;
      }

      .cls-6 {
        fill: #f5f4f4;
      }

      .cls-7 {
        fill: #f0efef;
      }

      .cls-8 {
        fill: #323333;
      }

      .cls-9 {
        fill: #bdbdbd;
      }

      .cls-10 {
        fill: #070808;
      }

      .cls-11 {
        fill: #282828;
      }

      .cls-12 {
        fill: #030303;
      }

      .cls-13 {
        fill: #1b1b1c;
      }

      .cls-14 {
        fill: #1d1e1e;
      }

      .cls-15 {
        fill: #f6f5f5;
      }

      .cls-16 {
        fill: #f3f2f2;
      }

      .cls-17 {
        fill: #171717;
      }

      .cls-18 {
        fill: #121212;
      }

      .cls-19 {
        fill: #242525;
      }

      .cls-20 {
        fill: #161616;
      }

      .cls-21 {
        fill: #191919;
      }

      .cls-22 {
        fill: #f7f6f6;
      }

      .cls-23 {
        fill: #212222;
      }

      .cls-24 {
        fill: #f8f8f8;
      }

      .cls-25 {
        fill: #1e1e1e;
      }

      .cls-26 {
        fill: #010101;
      }

      .cls-27 {
        fill: #060707;
      }

      .cls-28 {
        fill: #fefefe;
      }

      .cls-29 {
        fill: #292a2a;
      }

      .cls-30 {
        fill: #060606;
      }

      .cls-31 {
        fill: #1f2020;
      }
    </style>
  </defs>
  <path class="cls-12" d="M80.02,65.09c-.89,1.05-2.1,.55-3.14,.55-24.79,0-49.59-.04-74.38-.02-2.35,0-3.31-.18-1.72-2.74C13.54,42.27,26.2,21.61,38.91,.98c.12-.2,.35-.33,.87-.8,2.42,3.71,4.8,7.37,7.18,11.03,2.3,1.13,2.91,3.59,4.28,5.46,.88,1.19,1.59,2.51,2.39,3.75,5.95,9.25,3.31,7.48,13.57,7.69,1.59,.03,3.24-.19,4.65,.85,8.45,.05,16.91,.07,25.36,.17,1.14,.01,3.01-.81,2.85,1.65-.14,2.16-1.82,1.27-2.83,1.28-7.71,.12-15.41,.13-23.12,.18-2.27,1.54-4.84,.68-7.27,.91-1.47,.14-2.98-.27-4.55,.33,.61,2.96,2.72,3.43,5.26,3.59,3.42,.21,7-.93,10.22,1.11,6.45,.09,12.9,.15,19.35,.29,1.09,.02,2.76-.65,2.9,1.33,.16,2.31-1.7,1.66-2.91,1.69-5.7,.13-11.4,.19-17.11,.28-2.02,1.81-4.49,.88-6.77,1.12-1.57,.17-3.21-.32-4.88,.41,.5,2.8,2.44,3.35,4.85,3.51,3.3,.22,6.71-.78,9.88,.88,4.84,.05,9.67,.09,14.51,.16,1.14,.02,2.63-.46,2.49,1.66-.12,1.9-1.51,1.28-2.47,1.3-4.09,.11-8.18,.13-12.27,.18-4.06,1.74-8.26,.45-12.41,.77,1.99,3.24,4.01,6.59,6.02,9.95,.61,1.02,1.58,1.98,1.08,3.38Z"/>
  <path class="cls-9" d="M71.85,28.96c-.12,.02-.24,.06-.37,.06-4.45,0-9.44,1.26-13.2-.36-3.63-1.56-4.81-6.87-7.19-10.45-1.5-2.25-2.76-4.66-4.13-7.01,3.06-3.15,4.62-7.31,7.52-11.21,5.95,9.72,12.05,19.1,17.37,28.96Z"/>
  <path class="cls-30" d="M176.49,29.23c-4.2,4.88-8.03,5.98-13.18,4.31-4.2-1.36-6.69-5.16-7.08-10.39-.86-11.52,7.19-15.64,16.84-13.39,2.75,.64,4.93,2.35,5.87,5.22,.34,1.05,1.57,2.4-.29,3.01-1.2,.39-2.65,.45-3.18-1.5-.8-2.94-3.14-3.95-5.96-4.17-3.41-.27-6.51,.22-8.39,3.51-1.83,3.19-1.36,10.32,.76,12.87,1.93,2.34,6.15,3.2,9.67,1.87,.9-.34,1.79-.89,2.49-1.55,1.1-1.03,2.21-2.43,1.63-3.91-.54-1.37-2.19-.5-3.34-.59-1.61-.13-3.23-.06-4.85-.03-1.22,.02-1.37-.72-1.38-1.7-.01-1.08,.65-1.17,1.45-1.17,3.49,0,6.97,.07,10.46-.03,1.72-.05,1.69,.96,1.67,2.15-.03,2.49-.01,4.99,0,7.48,0,1.23,.29,2.49-1.75,2.42-1.94-.07-1.31-1.36-1.41-2.34-.05-.45,0-.91,0-2.07Z"/>
  <path class="cls-27" d="M208.12,21.86c-.05,7.78-4.42,12.35-11.85,12.41-7.45,.06-12.18-4.81-12.19-12.56-.01-7.74,4.75-12.67,12.17-12.61,7.56,.06,11.92,4.75,11.87,12.77Z"/>
  <path class="cls-5" d="M227.4,22.24c4.76,2.46,2.88,6.9,3.67,10.48,.25,1.13-.94,.83-1.6,.86-.99,.05-2.07,.19-2.07-1.36,0-1.37-.07-2.74-.13-4.12-.14-2.96-1.72-4.48-4.64-4.85-6.41-.82-6.4-.85-6.4,5.6,0,1-.05,2,.01,2.99,.08,1.21-.22,1.87-1.63,1.78-1.17-.07-2.16,.07-2.14-1.67,.07-6.86,.06-13.73,.01-20.59-.01-1.72,1.01-1.68,2.2-1.67,2.99,.02,5.98-.09,8.97,.04,3.19,.14,6.42,.68,7.47,4.32,.99,3.43-.08,6.31-3.71,8.19Z"/>
  <path class="cls-10" d="M273.32,34.27c-5.59-.03-9.84-2.81-11.37-7.43-1.9-5.77-.33-12.39,3.66-15.42,3.61-2.74,11.09-3.01,14.92-.55,1.99,1.28,3.22,3.14,3.69,5.41,.15,.71,1.09,2.17-.7,2.26-1.06,.06-2.28,.62-3.02-1.2-1.86-4.55-3.97-5.61-8.65-4.97-4.13,.56-5.9,2.48-6.67,7.23-1.34,8.19,3.76,13.3,11.01,11.09,2.36-.72,3.97-2.14,4.39-4.56,.36-2.05,1.75-1.92,3.08-1.67,1.94,.37,.76,1.87,.59,2.69-.92,4.42-5.23,7.16-10.93,7.12Z"/>
  <path class="cls-10" d="M111.49,33.33c2.68-7.22,5.35-14.14,7.77-21.15,.71-2.07,1.76-2.54,3.78-2.57,2.12-.04,3,.69,3.69,2.67,2.45,7,5.12,13.93,7.73,20.94-2.81,1.18-4.28,.04-4.75-2.62-.42-2.36-1.81-2.95-3.98-2.73-1.48,.15-3,.18-4.47,0-2.84-.35-4.81,.34-5.32,3.5-.42,2.62-2.25,2.48-4.45,1.96Z"/>
  <path class="cls-10" d="M257.95,33.3c-2.74,.8-4.24,.08-4.67-2.43-.41-2.35-1.74-3.33-4.17-3-1.47,.19-3,.2-4.46,0-2.9-.39-4.75,.47-5.27,3.58-.44,2.65-2.34,2.36-4.45,1.89,2.7-7.22,5.5-14.34,7.98-21.57,.74-2.15,2.02-2.08,3.67-2.11,1.58-.02,2.73,.08,3.4,1.98,2.53,7.24,5.28,14.4,7.98,21.66Z"/>
  <path class="cls-9" d="M80.02,65.09c-2.86-4.58-5.73-9.15-8.82-14.1h14.14c2.42,3.86,4.83,7.73,7.26,11.59,1.13,1.8,.8,2.66-1.48,2.6-3.7-.1-7.39-.07-11.09-.1Z"/>
  <path class="cls-18" d="M142.07,20.22c0,3.34-1.24,7.61,.36,9.76,1.51,2.02,6.06,.42,9.26,.62,1.08,.06,2.31-.25,2.26,1.58-.05,1.89-1.39,1.4-2.38,1.41-3.73,.05-7.47-.09-11.2,.06-1.91,.08-2.26-.65-2.24-2.37,.09-6.36,.02-12.72,.05-19.08,0-1.16-.39-2.53,1.68-2.57,2.19-.03,1.98,1.35,1.98,2.73,0,2.62,0,5.24,0,7.86,.08,0,.15,0,.23,0Z"/>
  <path class="cls-9" d="M77.77,38.18c-4.1,.06-8.2,.14-12.31,.16-3.85,.01-3.57-3.81-5.95-6.1h14.6c1.22,1.98,2.44,3.96,3.66,5.94Z"/>
  <path class="cls-9" d="M83.08,47.69c-3.95,.05-7.91,.1-11.86,.15-3.96,.05-3.23-4.01-5.1-6.08,4.63,0,9.25,0,13.88,0,.77,2.11,2.69,3.62,3.08,5.93Z"/>
  <path class="cls-11" d="M229.92,54.39c0-5.4,.35-5.77,4.63-5.11,1.93,.3,3.03,1.14,2.23,3.27-.16,.42-.7,.78-.22,1.28,1.38,1.45,1.94,3,.2,4.5-1.7,1.47-4.01,1.13-5.72,.62-2.33-.7-.58-3.23-1.13-4.56Z"/>
  <path class="cls-13" d="M179.56,52.25c0,2.52,0,4.02,0,5.51,0,.61,.04,1.3-.86,1.3-.75,0-1.1-.42-1.11-1.16,0-.25-.05-.5-.01-.75,.45-2.59-1.25-5.69,.9-7.71,1.2-1.13,2.12,.97,2.84,2.07,.71,1.1,1.43,2.19,2.23,3.42,.26-.44,.4-.6,.46-.8,.46-1.57-.81-4.61,.75-4.52,2.26,.12,.96,3.01,1,4.63,.05,1.56,1.21,4.01-.76,4.63-2.06,.65-2.25-2.12-3.29-3.35-.61-.72-1.05-1.6-2.13-3.27Z"/>
  <path class="cls-14" d="M127.95,54.53c0,.62,.12,1.28-.03,1.87-.22,.92,.78,2.57-1,2.6-1.49,.03-1.04-1.48-.98-2.34,.13-1.67-.53-2.11-2.12-2.09-1.54,.01-2.29,.33-2.16,2.06,.07,.86,.54,2.36-.94,2.37-1.83,.02-.95-1.65-1.02-2.55-.15-1.86-.06-3.74-.03-5.62,0-.56-.21-1.33,.69-1.47,.95-.14,1.41,.41,1.33,1.29-.16,1.73,.42,2.41,2.29,2.39,1.86-.02,2.01-.96,1.94-2.35-.04-.88,.33-1.46,1.3-1.34,.89,.1,.71,.86,.72,1.43,.03,1.25,0,2.5,0,3.75Z"/>
  <path class="cls-20" d="M162.24,54.08c.83-1.75-1.64-5.11,2.9-4.86,4.11,.23,5.84,1.52,5.77,5.07-.07,3.35-1.8,4.61-5.67,4.85-4.82,.3-2.05-3.33-3-5.07Z"/>
  <path class="cls-21" d="M155.81,59.15c-2.88-.05-4.66-2.06-4.56-5.16,.1-3.1,1.95-4.86,4.93-4.79,3.28,.08,4.19,2.25,4.28,4.97,.11,3.22-1.67,5.03-4.65,4.98Z"/>
  <path class="cls-19" d="M227.47,53.26c-.02,2.63,.43,5.24-2.9,5.86-3.45,.64-5.23-.89-5.14-4.88,.04-1.63-1.24-4.56,1.07-4.68,1.88-.09,.67,2.82,.91,4.36,.25,1.56-.29,3.6,2.16,3.52,2.11-.07,1.84-1.96,1.96-3.42,0-.12-.03-.26,0-.37,.41-1.43-.98-4.11,.97-4.12,2.11,0,.34,2.67,.97,3.74Z"/>
  <path class="cls-17" d="M251.49,54.29c-.05,3.25-1.71,4.96-4.72,4.84-3.14-.12-4.27-2.11-4.36-4.91-.1-3.13,1.71-5.03,4.62-5.02,3,.01,4.51,1.73,4.46,5.09Z"/>
  <path class="cls-25" d="M137.25,58.85c-2.4,.19-4.55,.81-6.61-.3-.43-.23-.38-8.56,.04-8.76,2.06-.97,4.15-.59,6.33-.17-.45,1.96-1.83,1.02-2.74,1.23-.77,.18-1.86-.26-1.81,1.17,.04,1.41,1.12,.96,1.89,1.07,.68,.1,1.51-.28,1.98,.68-.34,2.27-4.11-.58-3.84,2.39,.28,3.01,3.68-.03,4.75,2.68Z"/>
  <path class="cls-14" d="M269.27,53.33c0-.13-.02-.26,0-.37,.29-1.2-.71-3.38,.82-3.44,1.83-.06,.76,2.1,.99,3.27,.17,.84,0,1.74,.12,2.6,.16,1.2,.69,2.19,2.12,2.11,1.34-.08,1.95-.93,1.96-2.23,.01-1.62,0-3.24,.03-4.85,0-.48,.01-1.06,.7-1.05,.33,0,.92,.15,.95,.32,.53,2.57,.7,5.2-.23,7.69-.77,2.05-2.72,1.96-4.45,1.74-3.64-.47-2.93-3.36-3.03-5.77Z"/>
  <path class="cls-4" d="M143.65,54.32c.09,2.79,1.74,3.83,4.12,2.49,.62-.35,1.12-1.24,1.81-.47,.61,.68,.01,1.46-.56,1.86-2.08,1.47-4.24,1.46-6.12-.29-1.86-1.72-1.84-5.84,.03-7.53,1.89-1.7,4.05-1.67,6.17-.32,.59,.37,.81,.94,.26,1.54-.54,.59-.95,.15-1.54-.08-2.9-1.14-4.27-.18-4.17,2.79Z"/>
  <path class="cls-4" d="M206.63,59.13c-2.34,.11-3.83-.54-4.64-2.39-.98-2.25-.83-4.43,.77-6.31,1.41-1.64,3.38-1.42,5.22-.96,.77,.19,1.91,.73,1.43,1.78-.72,1.59-1.47,.16-2.26-.17-1.28-.53-2.53-.32-3.18,1.03-.73,1.54-.83,3.14,.35,4.55,.83,.99,1.87,1.17,2.99,.45,.73-.47,1.57-1.99,2.28-.52,.5,1.03-.8,1.95-1.9,2.38-.45,.17-.98,.15-1.05,.16Z"/>
  <path class="cls-31" d="M260.31,49.24c-1.57,2.61-4.24,.39-4.55,2.59-.42,2.91,3.05,.58,3.78,2.65-1.85,.81-4.77,.83-4.16,4.15,.02,.09-.58,.38-.9,.41-.61,.07-.85-.38-.86-.91-.01-2.61-.74-5.52,.19-7.74,1.04-2.49,3.81-.67,6.5-1.15Z"/>
  <path class="cls-14" d="M193.79,58.41c-2,1.38-3.84,1.01-5-.98-1.35-2.31-1.37-4.88,.49-6.96,1.62-1.82,3.79-1.56,5.86-.72,.59,.24,1.12,.87,.84,1.47-.25,.55-.91,.68-1.58,.29-2.27-1.33-3.91-.75-4.29,1.89-.37,2.57,.31,4.57,3.6,4.04,.2,.2,.27,.41,.23,.64-.04,.23-.09,.34-.15,.34Z"/>
  <path class="cls-23" d="M110.35,50.07c2.72-1.07,5.2-.89,8.07-.28-4.67,1.19-2.92,4.71-3.2,7.48-.07,.66,.35,1.63-.76,1.76-1.29,.16-1.3-.8-1.3-1.71,0-1-.13-2.01,.02-2.99,.33-2.19-.11-3.79-2.83-4.27Z"/>
  <path class="cls-23" d="M278.54,50.06c2.87-1.04,5.36-.97,8.25-.1-4.69,.82-2.93,4.21-3.25,6.75-.1,.83,.69,2.27-.93,2.32-1.58,.04-1-1.38-1.1-2.27-.07-.62,0-1.25-.02-1.87-.04-2.06,.73-4.54-2.95-4.84Z"/>
  <path class="cls-8" d="M264.67,54.01c.79-1.45-1.14-4.4,1.24-4.45,1.98-.05,.97,2.9,.88,4.39-.1,1.7,1.52,4.74-1.14,4.86-1.71,.08-.4-3.09-.99-4.8Z"/>
  <path class="cls-2" d="M175.38,54.06c-.88,1.76,.92,4.78-1.33,4.76-2.04-.02-.96-3.08-.93-4.71,.04-1.59-1.23-4.64,1.08-4.56,2.24,.08-.04,3.18,1.18,4.51Z"/>
  <path class="cls-26" d="M218.23,58.38c-1.98,1.14-3.61,.52-5.14,.7-1.11,.13-1.53-.4-1.51-1.51,.05-2.37,.02-4.73,.03-7.1,0-.51,.12-1.02,.71-1.1,.82-.11,1.03,.45,1.04,1.14,0,.37,0,.75,.01,1.12q.23,5.17,4.86,6.75Z"/>
  <path class="cls-29" d="M193.79,58.41c-.03-.33-.05-.65-.08-.98,.24-.64,1.2-1.22,.48-1.94-.54-.53-2.41,.28-1.67-1.43,.19-.44,1.8-.33,2.77-.35,1.49-.03,1.38,1.1,1.34,2.09-.07,1.81,.71,4.58-2.83,2.6Z"/>
  <path class="cls-9" d="M44.86,14.12c2.99,4.82,5.98,9.64,9.3,14.97-2.66,0-4.74-.18-6.77,.07-1.3,.16-3.71-1.33-3.67,1.53,.04,2.56,2.28,1.21,3.49,1.34,2.22,.23,4.48,.07,6.72,.07,.98,0,2.06-.19,2.62,.92,.82,1.62,2.91,3.16,2.28,4.79-.5,1.29-2.91,.47-4.46,.51-2.86,.09-5.73,.03-8.59,.02-1.06,0-2.03,.08-2.11,1.48-.09,1.6,.93,1.79,2.18,1.78,3.49-.02,7.01,.32,10.45-.09,4.75-.57,7.48,1.32,8.87,6.32-4.77,0-9.41,0-14.05,0-1.25,0-2.53-.2-3.72,.05-1.3,.28-3.72-1.32-3.67,1.55,.04,2.56,2.3,1.3,3.49,1.33,5.85,.15,11.71,.15,17.56,.02,1.96-.04,3.2,.44,4.18,2.25,1.68,3.13,3.64,6.11,5.78,9.64-4.48,0-8.3,0-12.11,0-18.8,.04-37.61,.1-56.41,.13-.36,0-.72-.13-1.07-.23-.02,0,.06-.34,.09-.52,2.11-1.61,4.56-.9,6.85-.88,2.52,.02,4.1-.87,5.45-3.05,8.69-14.07,17.28-28.21,25.98-42.28,.39-.63,.71-1.32,1.36-1.74Z"/>
  <path class="cls-1" d="M44.86,14.12c-1.08,4.45-4.1,7.88-6.36,11.67-6.83,11.42-13.97,22.66-20.86,34.04-1.07,1.77-2.28,2.37-4.21,2.29-2.73-.11-5.47-.04-8.21-.04,4.33-7.23,8.62-14.49,13-21.68,6.4-10.49,12.87-20.95,19.31-31.41,.63-1.02,1.33-2.01,2.24-3.37,1.84,3.07,3.46,5.79,5.09,8.51Z"/>
  <path class="cls-28" d="M204.27,21.72c0,6.33-2.57,9.4-7.94,9.5-5.45,.1-8.42-3.29-8.4-9.58,.02-6.23,2.68-9.34,8.09-9.43,5.61-.09,8.26,2.97,8.25,9.51Z"/>
  <path class="cls-22" d="M221.18,20.64c-4.58,.01-6.52-3-4.92-7.05,.04-.11,0-.27,.06-.36,.53-.83,7.69-.77,9.36,.02,2.4,1.14,2.25,3.33,1.57,5.1-1.14,2.97-4.11,2.03-6.07,2.29Z"/>
  <path class="cls-24" d="M123.02,12.55c1.4,3.8,2.45,6.96,3.74,10.03,.79,1.89,.27,2.3-1.62,2.41-7.01,.4-7.02,.46-4.6-6.07,.72-1.95,1.51-3.88,2.49-6.36Z"/>
  <path class="cls-24" d="M246.48,12.63c1.36,3.64,2.5,6.9,3.79,10.09,.66,1.64,.32,2.12-1.46,2.26-7.03,.58-7.24,.38-4.77-6.22,.72-1.94,1.53-3.85,2.44-6.14Z"/>
  <path class="cls-3" d="M235.64,56.06c-.1,1.3-1.04,1.43-2.1,1.49-1.05,.06-1.6-.23-1.59-1.42,0-1.09,.33-1.6,1.48-1.52,1.02,.07,2.03,.04,2.21,1.45Z"/>
  <path class="cls-15" d="M234.96,51.83c.04,1.01-.58,1.26-1.43,1.24-.73-.01-1.5,.1-1.57-1.02-.06-1.04,.5-1.26,1.36-1.24,.75,.02,1.53-.03,1.64,1.02Z"/>
  <path class="cls-7" d="M166.2,50.87c2.1,.29,2.89,1.67,2.76,3.64-.12,1.87-1.26,3.26-3.08,2.91-2.82-.54-.84-3-1.3-4.53-.32-1.06-.19-2.34,1.62-2.02Z"/>
  <path class="cls-16" d="M153.36,53.7c.06-1.37,.5-2.91,2.63-2.83,2.1,.08,2.52,1.71,2.51,3.39-.01,1.73-.64,3.31-2.68,3.23-2.02-.08-2.48-1.66-2.45-3.79Z"/>
  <path class="cls-6" d="M249.61,54.05c-.23,1.56-.31,3.35-2.46,3.45-2.12,.1-2.61-1.39-2.6-3.18,.01-1.66,.06-3.33,2.29-3.46,2.23-.14,2.45,1.56,2.76,3.2Z"/>
</svg>