<?xml version="1.0" standalone="no"?>
<!DOCTYPE svg PUBLIC "-//W3C//DTD SVG 20010904//EN"
 "http://www.w3.org/TR/2001/REC-SVG-20010904/DTD/svg10.dtd">
<svg version="1.0" xmlns="http://www.w3.org/2000/svg"
 width="1008.000000pt" height="1008.000000pt" viewBox="0 0 1008.000000 1008.000000"
 preserveAspectRatio="xMidYMid meet">

<g transform="translate(0.000000,1008.000000) scale(0.100000,-0.100000)"
fill="#000000" stroke="none">
<path d="M4695 8790 c-3 -5 -15 -10 -26 -10 -11 0 -22 -7 -25 -15 -4 -8 -24
-18 -46 -21 -22 -4 -42 -13 -45 -20 -3 -8 -11 -14 -18 -14 -8 0 -22 -11 -33
-24 -10 -14 -31 -28 -45 -31 -14 -4 -33 -18 -42 -31 -8 -13 -21 -24 -27 -24
-6 0 -18 -6 -27 -14 -61 -56 -91 -87 -91 -95 0 -5 -16 -12 -36 -15 -19 -4 -38
-14 -41 -22 -3 -7 -11 -14 -18 -14 -8 0 -22 -11 -32 -24 -10 -13 -29 -27 -42
-31 -25 -8 -181 -159 -181 -175 0 -5 -5 -10 -10 -10 -14 0 -80 -66 -80 -80 0
-5 -7 -10 -15 -10 -9 0 -18 -7 -21 -15 -4 -8 -15 -15 -25 -15 -11 0 -24 -11
-31 -25 -6 -14 -15 -25 -20 -25 -5 0 -24 -16 -42 -36 -19 -20 -39 -40 -44 -46
-6 -5 -25 -25 -44 -43 -18 -18 -39 -40 -46 -49 -7 -9 -24 -16 -38 -16 -14 0
-27 -7 -31 -17 -9 -23 -53 -67 -75 -76 -10 -3 -18 -12 -18 -18 0 -14 -90 -99
-104 -99 -5 0 -81 -72 -168 -159 -87 -87 -165 -161 -173 -165 -8 -3 -15 -10
-15 -15 0 -6 -16 -18 -36 -27 -20 -10 -39 -26 -42 -36 -2 -10 -10 -18 -18 -18
-7 0 -18 -9 -24 -20 -6 -12 -22 -25 -36 -30 -13 -5 -24 -16 -24 -24 0 -7 -7
-16 -15 -20 -8 -3 -15 -14 -15 -25 0 -11 -4 -23 -10 -26 -5 -3 -10 -33 -10
-65 0 -32 5 -62 10 -65 6 -3 10 -14 10 -23 0 -21 53 -72 74 -72 9 0 21 -11 26
-25 5 -14 14 -25 21 -25 13 0 63 -50 72 -72 3 -9 22 -20 41 -24 20 -3 36 -10
36 -15 0 -6 16 -25 36 -43 44 -42 48 -46 88 -89 18 -19 37 -36 42 -38 5 -2 26
-30 48 -61 21 -31 45 -59 52 -62 8 -3 14 -12 14 -21 0 -28 18 -15 69 49 86
108 296 295 371 330 36 16 99 51 140 76 162 100 388 219 455 239 39 11 113 29
165 41 192 40 197 42 285 130 44 44 88 80 97 80 9 0 20 5 23 10 3 6 16 10 27
10 11 0 26 7 32 16 8 11 34 18 80 21 62 5 68 4 73 -16 3 -12 13 -21 24 -21 11
0 29 -6 42 -12 12 -7 252 -242 534 -522 l511 -509 37 6 c46 8 51 12 35 32 -11
13 -8 15 23 15 20 0 39 5 42 10 3 6 15 10 27 10 11 0 22 8 25 20 3 11 9 20 14
20 13 0 79 67 79 80 0 5 5 10 10 10 14 0 80 66 80 80 0 5 5 10 10 10 6 0 26
16 45 35 19 19 35 39 35 45 0 5 5 10 10 10 6 0 26 16 45 35 19 19 35 39 35 45
0 5 5 10 10 10 15 0 80 67 80 83 0 18 82 97 102 97 19 0 48 41 48 69 0 10 6
21 14 24 9 4 16 32 21 86 5 54 11 81 21 85 11 4 14 31 14 117 l0 112 -120 120
c-67 67 -120 128 -120 138 0 12 -13 24 -32 33 -18 8 -49 29 -68 49 -19 19 -50
38 -69 42 -32 7 -47 17 -94 62 -13 12 -35 25 -49 28 -15 4 -29 13 -32 21 -3 8
-16 14 -30 14 -14 0 -28 5 -31 10 -3 6 -14 10 -25 10 -10 0 -20 6 -23 14 -3 7
-19 16 -37 19 -17 4 -46 18 -64 32 -18 14 -38 25 -43 25 -6 0 -13 7 -17 15 -3
8 -16 15 -30 15 -15 0 -25 7 -29 20 -3 11 -14 20 -25 20 -10 0 -30 11 -43 24
-14 13 -41 27 -62 31 -20 4 -37 11 -37 16 0 6 -16 25 -36 43 -20 19 -40 39
-46 44 -5 6 -26 26 -45 45 -19 19 -39 39 -43 44 -5 4 -25 25 -44 46 -19 20
-40 37 -46 37 -7 0 -28 17 -49 39 -21 21 -51 42 -69 46 -18 4 -45 18 -59 31
-14 13 -32 24 -38 24 -7 0 -15 6 -18 14 -3 7 -23 16 -45 20 -22 3 -42 13 -46
21 -3 8 -16 15 -30 15 -14 0 -28 5 -31 10 -3 6 -14 10 -25 10 -10 0 -20 7 -24
15 -3 8 -12 15 -21 15 -8 0 -15 7 -15 15 0 9 -8 18 -17 21 -36 11 -68 29 -76
41 -10 16 -442 19 -452 3z"/>
<path d="M4790 7089 c-171 -18 -407 -78 -582 -148 -378 -151 -727 -434 -962
-779 -89 -132 -89 -131 -61 -180 28 -49 105 -152 130 -172 9 -7 23 -29 30 -47
21 -49 10 -61 -135 -157 -114 -76 -130 -91 -184 -167 -32 -45 -63 -93 -69
-106 -5 -12 -18 -25 -28 -28 -25 -8 -28 -24 -38 -185 -14 -220 5 -445 55 -645
128 -512 444 -959 888 -1256 80 -53 112 -71 234 -133 304 -155 668 -235 1015
-223 130 4 140 6 165 29 15 14 43 36 62 49 60 40 138 127 155 172 11 30 33 54
73 85 97 74 242 202 353 312 59 58 131 128 160 155 28 28 77 87 106 133 30 45
59 82 64 82 5 0 53 43 107 96 53 53 124 117 157 142 69 53 370 352 412 409 66
91 102 129 170 179 57 43 74 61 82 91 14 51 14 287 0 393 l-12 85 -81 83 c-45
45 -82 87 -84 92 -2 5 -51 49 -110 98 -59 50 -130 115 -159 145 -29 31 -79 75
-113 98 -33 24 -60 46 -60 50 0 15 201 259 230 281 17 12 30 28 30 36 0 25
-128 190 -214 277 l-31 31 -57 -67 c-33 -37 -72 -72 -89 -78 -16 -6 -42 -19
-57 -29 -36 -26 -116 -34 -172 -19 -35 10 -64 31 -127 94 -46 45 -83 88 -83
95 0 18 -56 75 -92 94 -15 8 -35 28 -43 44 -17 32 -125 142 -165 167 -14 9
-56 52 -94 95 -38 44 -106 111 -152 149 l-82 69 -98 10 c-118 11 -326 11 -444
-1z m260 -1259 c47 -72 88 -130 91 -130 6 0 174 111 246 163 24 17 46 28 49
24 3 -3 10 -25 15 -48 6 -24 15 -49 21 -56 18 -22 73 -26 107 -9 17 9 31 15
31 14 0 -2 -7 -77 -15 -168 -9 -103 -11 -166 -5 -170 5 -3 78 -12 162 -19 84
-6 157 -16 161 -20 5 -5 -1 -25 -12 -45 -12 -20 -21 -43 -21 -51 0 -19 66 -85
85 -85 31 0 12 -29 -83 -123 -86 -85 -98 -102 -94 -126 3 -19 35 -59 102 -126
91 -91 112 -125 74 -125 -18 0 -84 -67 -84 -85 0 -8 9 -30 21 -49 16 -28 18
-37 7 -40 -7 -3 -83 -12 -168 -21 -85 -9 -157 -19 -159 -21 -3 -3 3 -77 12
-165 10 -88 15 -164 12 -168 -2 -5 -22 -4 -43 2 -56 15 -93 -6 -109 -62 -7
-24 -14 -46 -17 -48 -2 -2 -64 35 -137 83 -74 47 -139 88 -145 91 -6 2 -53
-57 -104 -132 -51 -74 -96 -135 -99 -135 -3 0 -14 14 -23 30 -9 17 -24 30 -33
30 -8 0 -15 5 -15 10 0 18 -36 11 -83 -16 -43 -24 -46 -24 -55 -7 -5 10 -13
34 -17 53 -4 19 -20 76 -35 125 -15 50 -31 102 -34 116 l-6 26 -147 -37 c-82
-20 -159 -40 -171 -44 -23 -8 -23 -7 -17 38 7 42 5 48 -23 76 -23 22 -40 30
-67 30 -21 0 -38 6 -41 13 -3 8 25 76 61 151 36 76 67 142 68 147 1 5 -65 40
-148 78 -139 65 -179 91 -141 91 8 0 29 15 45 33 42 44 41 80 -4 123 -40 38
-43 50 -14 59 58 19 269 126 269 138 0 7 -6 21 -13 32 -12 18 -127 262 -127
270 0 2 18 1 40 -2 35 -5 43 -2 70 28 29 30 31 36 25 82 l-7 50 33 -6 c19 -4
93 -22 164 -41 72 -19 133 -31 136 -27 4 3 26 74 49 156 24 83 46 154 50 158
4 5 22 -6 39 -24 27 -27 37 -31 67 -26 21 4 44 17 60 36 14 17 33 31 42 31 10
-1 51 -52 102 -130z"/>
<path d="M1840 6700 c-14 -17 -31 -36 -38 -43 -8 -7 -28 -26 -45 -44 -18 -17
-37 -37 -44 -43 -107 -107 -105 -105 -126 -151 -9 -20 -24 -39 -32 -43 -8 -3
-15 -10 -15 -17 0 -6 -11 -20 -25 -31 -14 -11 -25 -25 -25 -33 0 -7 -6 -15
-14 -18 -7 -3 -17 -18 -20 -33 -4 -16 -27 -47 -52 -70 -24 -23 -44 -46 -44
-51 0 -6 -11 -15 -25 -21 -14 -7 -25 -20 -25 -31 0 -10 -7 -21 -15 -25 -8 -3
-15 -12 -15 -21 0 -8 -5 -15 -10 -15 -14 0 -80 -66 -80 -80 0 -5 -6 -10 -14
-10 -16 0 -46 -42 -46 -64 0 -7 -7 -16 -15 -20 -8 -3 -15 -14 -15 -25 0 -11
-9 -25 -20 -31 -15 -8 -20 -21 -20 -50 0 -21 -4 -42 -10 -45 -5 -3 -10 -19
-10 -35 0 -15 -6 -30 -14 -33 -9 -4 -17 -29 -21 -71 -4 -37 -11 -69 -16 -72
-13 -7 -12 -381 1 -389 6 -3 10 -19 10 -35 0 -16 7 -33 15 -37 9 -5 17 -32 21
-68 3 -33 11 -65 18 -70 17 -16 36 -53 36 -70 0 -9 7 -18 15 -21 9 -4 17 -27
21 -65 5 -46 11 -62 30 -74 17 -11 24 -25 24 -46 0 -17 6 -32 15 -35 8 -4 15
-15 15 -25 0 -10 9 -24 20 -31 11 -7 20 -18 20 -24 0 -17 23 -58 43 -78 9 -10
17 -28 17 -42 0 -17 8 -27 25 -34 14 -5 25 -17 25 -26 0 -9 27 -44 60 -77 33
-34 63 -70 66 -81 7 -22 69 -86 83 -86 5 0 11 -7 15 -15 3 -8 16 -15 29 -15
18 0 296 -273 1162 -1140 626 -627 1160 -1154 1187 -1172 48 -33 48 -33 48
-90 0 -70 47 -168 113 -238 51 -53 155 -137 206 -165 20 -11 41 -25 46 -31 6
-7 37 -14 69 -17 39 -4 63 -11 68 -21 5 -9 22 -16 38 -16 16 0 32 -4 35 -10 4
-6 73 -10 174 -10 138 0 171 3 181 15 8 10 31 15 66 15 29 0 56 4 59 10 3 5
15 10 25 10 10 0 23 6 27 14 4 7 33 16 63 19 31 4 60 13 66 22 6 8 18 15 26
15 8 0 26 10 39 23 14 12 37 28 52 34 15 7 27 17 27 23 0 5 6 10 14 10 8 0 28
14 44 30 17 17 35 30 41 30 5 0 14 6 18 13 8 12 40 30 76 41 9 3 17 12 17 21
0 9 9 15 25 15 13 0 28 6 32 13 10 16 49 37 67 37 8 0 19 7 24 16 5 8 27 18
49 21 39 5 105 69 1282 1248 683 683 1241 1249 1241 1258 0 9 7 17 15 17 9 0
21 11 27 25 6 14 15 25 19 25 14 0 67 55 73 77 4 11 13 24 21 27 8 3 15 14 15
24 0 11 11 30 24 43 13 14 27 41 31 62 4 20 11 37 15 37 11 0 40 58 40 80 0
10 7 20 15 24 8 3 15 16 15 30 0 14 8 32 17 42 21 20 43 61 43 79 0 7 6 15 14
18 8 3 18 26 21 51 4 24 13 47 21 50 9 3 14 20 14 45 0 22 5 43 10 46 5 3 10
21 10 40 0 19 6 35 14 38 10 4 17 29 22 76 4 45 11 72 20 75 9 3 14 21 14 45
0 22 5 43 10 46 13 8 14 442 1 449 -5 3 -12 26 -15 51 -4 24 -13 48 -20 52 -8
5 -15 17 -18 28 -2 11 -12 21 -23 24 -11 2 -26 12 -33 22 -7 11 -21 19 -31 19
-11 0 -21 7 -25 15 -3 9 -18 15 -35 15 -16 0 -33 5 -36 10 -3 6 -14 10 -25 10
-10 0 -20 7 -24 15 -3 8 -14 15 -25 15 -11 0 -25 9 -31 20 -6 11 -16 20 -23
20 -7 0 -28 14 -47 30 -19 17 -41 35 -47 41 -7 5 -13 21 -13 35 0 14 -7 27
-17 31 -24 9 -61 48 -65 70 -2 10 -12 22 -23 28 -45 23 -75 48 -75 61 0 8 -8
18 -17 21 -23 9 -73 58 -73 73 0 6 -8 14 -17 17 -23 9 -67 53 -76 76 -3 9 -17
17 -29 17 -28 0 -42 9 -56 36 -13 24 -45 29 -258 40 -96 5 -134 3 -189 -11
-37 -9 -75 -20 -84 -25 -9 -4 -36 -17 -61 -29 -25 -12 -88 -57 -140 -101 -52
-44 -126 -104 -165 -133 -38 -30 -83 -68 -100 -86 -16 -17 -77 -73 -134 -124
-57 -51 -124 -110 -147 -132 l-43 -41 329 -329 c182 -182 330 -335 330 -341 0
-6 9 -18 20 -25 11 -8 31 -40 44 -72 29 -72 23 -109 -28 -171 -20 -25 -36 -48
-36 -53 0 -16 -2125 -2133 -2142 -2133 -9 0 -20 -5 -23 -10 -10 -16 -228 -1
-238 16 -4 8 -18 14 -31 14 -12 0 -33 11 -46 25 -18 20 -33 25 -69 25 -75 0
-192 27 -261 59 -36 17 -76 31 -90 31 -55 0 -151 33 -285 99 -77 38 -162 76
-189 86 -26 10 -62 30 -80 44 -17 15 -47 38 -66 51 -19 13 -54 41 -77 62 -24
21 -47 38 -52 38 -29 0 -361 360 -361 391 0 5 -21 34 -46 65 -25 31 -57 82
-71 113 -14 31 -42 79 -63 106 -39 52 -93 171 -129 288 -11 37 -35 99 -52 139
-26 60 -32 90 -42 207 l-10 136 -44 49 c-29 33 -43 57 -43 76 0 16 -4 32 -10
35 -5 3 -10 17 -10 31 0 14 -6 27 -14 30 -10 4 -16 36 -21 121 -7 101 -6 117
9 125 9 5 16 17 16 26 0 9 119 136 265 282 l265 265 -26 53 c-14 28 -30 52
-36 52 -13 0 -62 50 -71 72 -3 9 -22 20 -41 23 -29 6 -35 12 -41 41 -3 19 -14
38 -23 41 -9 4 -30 19 -45 35 -16 15 -33 28 -38 28 -8 0 -35 21 -62 50 -5 4
-24 23 -42 42 -18 18 -45 42 -60 53 -14 11 -37 30 -50 43 -12 12 -27 22 -34
22 -6 0 -11 6 -11 14 0 14 -41 46 -60 46 -6 0 -29 20 -52 45 -23 25 -47 45
-54 45 -6 0 -14 7 -18 15 -3 8 -10 15 -16 15 -7 0 -25 14 -42 30 -16 17 -35
30 -43 30 -7 0 -15 6 -18 14 -3 7 -21 16 -40 20 -18 3 -44 17 -57 31 -13 14
-29 25 -37 25 -7 0 -13 5 -13 10 0 6 -11 15 -25 20 -14 5 -25 14 -25 19 0 5
-14 17 -32 25 -23 12 -63 16 -163 16 l-131 0 -24 -30z"/>
</g>
</svg>
